<?xml version="1.0" encoding="UTF-8"?>
<svg width="100px" height="100px" viewBox="0 0 100 100" version="1.1" xmlns="http://www.w3.org/2000/svg" xmlns:xlink="http://www.w3.org/1999/xlink">
    <title>$0 maintenance fees</title>
    <g id="$0-maintenance-fees" stroke="none" stroke-width="1" fill="none" fill-rule="evenodd">
        <g id="dollar-coin" transform="translate(20.000000, 20.000000)" fill="#004A8F" fill-rule="nonzero">
            <path d="M9.91152558,59.361593 C9.68663756,59.361593 9.47097789,59.2721698 9.31198206,59.1131259 L0.244204253,50.0512842 C0.085293808,49.8901074 -0.00258875897,49.6720916 5.81019145e-05,49.4457663 C0.00282648459,49.2194409 0.0958995752,49.00359 0.258620433,48.846261 L9.2678855,40.1516079 C11.9710962,37.5440744 15.3391716,35.7299312 19.0038957,34.9075101 L19.5288143,34.7896366 C23.1954401,33.9666464 27.0165402,34.1524411 30.5860251,35.3272754 L32.495745,35.9556513 L42.8652192,36.0294282 C44.1016375,36.0333666 45.2501572,36.6693714 45.9095774,37.7152733 L54.7712886,31.1609991 C56.1750268,30.14836 58.1227148,30.3928848 59.2325683,31.7210957 C60.3424218,33.0493066 60.2369543,35.0094488 58.9909895,36.2109025 L48.2890952,46.3870302 C47.7611473,46.8893046 47.1352815,47.2772952 46.4506082,47.5267565 L40.4857013,49.7044478 C33.9050788,52.116723 26.9236904,53.2476653 19.9180512,53.0362816 L16.2970457,52.9311283 C15.5789674,52.9040018 14.8942554,53.2350784 14.4695828,53.8147554 L10.5899341,59.0223887 C10.4426861,59.2200482 10.2167254,59.3438623 9.97088633,59.361593 L9.91152558,59.361593 Z M2.05725101,49.4627648 L9.81570038,57.2203661 L13.1093737,52.8013827 C13.8649775,51.7781521 15.0758137,51.1923966 16.3470783,51.235107 L19.9672358,51.3411083 C26.7580088,51.5450415 33.5252058,50.4495564 39.904814,48.1135798 L45.8671768,45.9358885 C46.3333353,45.7661077 46.7594423,45.501956 47.1188405,45.1599588 L57.8232789,34.9838311 C58.1373346,34.6885093 58.3171465,34.2777295 58.3214156,33.8466488 C58.3302384,33.4100501 58.1608665,32.988611 57.8521112,32.6797861 C57.2872678,32.1300662 56.4086034,32.0670487 55.7710931,32.5305363 L46.4607843,39.4172307 C46.5887238,41.3498619 45.176258,43.0422826 43.251912,43.262111 L27.1905904,45.09551 C26.7250572,45.1486669 26.3045756,44.8143699 26.2514187,44.3488366 C26.1982617,43.8833033 26.5325587,43.4628218 26.998092,43.4096648 L43.0594136,41.5762658 C43.5798944,41.51671 44.0538681,41.248318 44.3726785,40.8326173 C44.691489,40.4169166 44.8277942,39.8895589 44.7503468,39.3714381 C44.7503468,39.3519339 44.7444107,39.3324296 44.7410187,39.3137734 C44.7226767,39.2586016 44.7096152,39.2018126 44.7020102,39.1441713 C44.4745914,38.3099529 43.7180053,37.7303663 42.853347,37.7279935 L32.3507352,37.6525205 C32.262584,37.6516798 32.1750781,37.6373814 32.0912439,37.61012 L30.0560184,36.9401916 C26.7771427,35.8616334 23.2673965,35.6910838 19.8993949,36.4466494 L19.3753244,36.5636749 C16.0141058,37.3184317 12.9250463,38.9826515 10.4457723,41.3744393 L2.05725101,49.4627648 Z" id="Shape"></path>
            <g id="Group" transform="translate(21.283348, 0.000000)">
                <path d="M14.2576029,28.5152059 C6.38334627,28.5152059 0,22.1318596 0,14.2576029 C0,6.38334627 6.38334627,0 14.2576029,0 C22.1318596,0 28.5152059,6.38334627 28.5152059,14.2576029 C28.5067929,22.1283722 22.1283722,28.5067929 14.2576029,28.5152059 L14.2576029,28.5152059 Z M14.2576029,1.6968693 C9.17684026,1.6968693 4.59637812,4.75749218 2.65213365,9.45153765 C0.707889173,14.1455831 1.78276022,19.5486099 5.37552323,23.1411303 C8.96828624,26.7336508 14.3713855,27.8081571 19.0652997,25.8635957 C23.7592139,23.9190344 26.8195276,19.3383656 26.8191846,14.2576029 C26.8112393,7.32346399 21.1917424,1.70434646 14.2576029,1.6968693 Z" id="Shape"></path>
            </g>
        </g>
        <line x1="47.1333008" y1="25.2749023" x2="50" y2="28" id="Path-2" stroke="#004A8F" stroke-width="2" stroke-linecap="round" stroke-linejoin="round"></line>
        <line x1="61" y1="40" x2="64.8666992" y2="43.7250977" id="Path-2" stroke="#004A8F" stroke-width="2" stroke-linecap="round" stroke-linejoin="round"></line>
        <path d="M55.5409512,25.7724084 C56.0092946,25.7724084 56.3889619,26.1520757 56.3889619,26.6204191 L56.3893566,27.2534824 C58.2390613,27.6246307 59.6731366,29.1861936 59.823405,31.1343797 C59.823405,31.6027231 59.4437377,31.9823904 58.9753943,31.9823904 C58.507051,31.9823904 58.1273837,31.6027231 58.1273837,31.1343797 C57.9574445,29.8356513 56.8507508,28.8643349 55.5409512,28.8643349 C54.2311517,28.8643349 53.124458,29.8356513 52.9545188,31.1343797 C53.0470064,32.4729672 54.1996735,33.4875649 55.5389412,33.40971 C55.5394235,33.4095925 55.5397634,33.4095923 55.5401032,33.4095923 C57.8190704,33.329371 59.7341505,35.1064683 59.824253,37.3850662 C59.7432418,39.371564 58.2751124,40.9753614 56.3893628,41.2979789 L56.3889619,41.8956348 C56.3889619,42.3639781 56.0092946,42.7436454 55.5409512,42.7436454 C55.0726079,42.7436454 54.6929406,42.3639781 54.6929406,41.8956348 L54.6930742,41.2980322 C52.8063967,40.9753843 51.3379376,39.3700671 51.2584975,37.3825222 C51.2584975,36.9141788 51.6381648,36.5345115 52.1065081,36.5345115 C52.5748515,36.5345115 52.9545188,36.9141788 52.9545188,37.3825222 C53.124458,38.6812506 54.2311517,39.652567 55.5409512,39.652567 C56.8507508,39.652567 57.9574445,38.6812506 58.1273837,37.3825222 C58.0348909,36.0433491 56.8819956,35.028127 55.5421142,35.1054966 C55.5416309,35.1056134 55.5412911,35.1056136 55.5409512,35.1056136 C53.2638742,35.1858577 51.3499598,33.4110337 51.2584975,31.1343797 C51.4087659,29.1861936 52.8428412,27.6246307 54.6925459,27.2534824 L54.6929406,26.6204191 C54.6929406,26.1520757 55.0726079,25.7724084 55.5409512,25.7724084 Z" id="Combined-Shape" fill="#004A8F" fill-rule="nonzero"></path>
    </g>
</svg>